if (_typeface_js && _typeface_js.loadFace) _typeface_js.loadFace({"glyphs":{"S":{"x_min":69.453125,"x_max":572.96875,"ha":637,"o":"m 325 937 l 434 924 l 532 885 l 532 860 l 434 902 l 325 918 l 218 895 l 140 827 l 109 721 l 142 615 l 220 547 l 319 502 l 406 464 l 488 413 l 548 340 l 572 235 l 551 131 l 492 54 l 408 4 l 305 -11 l 219 -3 l 142 20 l 69 56 l 69 82 l 141 42 l 219 17 l 305 7 l 398 23 l 475 68 l 529 138 l 549 233 l 527 329 l 469 398 l 393 446 l 311 481 l 235 514 l 162 559 l 108 625 l 86 719 l 106 812 l 158 880 l 234 923 l 325 937 "},"a":{"x_min":46.296875,"x_max":590.328125,"ha":695,"o":"m 590 578 l 590 482 l 590 385 l 590 289 l 590 192 l 590 96 l 590 0 l 567 0 l 567 84 l 505 33 l 431 0 l 347 -11 l 251 3 l 168 46 l 104 110 l 61 193 l 46 289 l 61 384 l 104 467 l 168 532 l 251 574 l 347 590 l 431 578 l 505 544 l 567 493 l 567 578 l 590 578 m 347 7 l 432 21 l 507 58 l 567 116 l 567 202 l 567 289 l 567 375 l 567 462 l 507 519 l 432 557 l 347 571 l 259 556 l 183 516 l 123 455 l 83 378 l 69 289 l 83 200 l 123 123 l 183 62 l 259 22 l 347 7 "},"T":{"x_min":46.296875,"x_max":763.953125,"ha":810,"o":"m 763 906 l 677 906 l 590 906 l 503 906 l 416 906 l 416 806 l 416 705 l 416 604 l 416 503 l 416 403 l 416 301 l 416 201 l 416 100 l 416 0 l 393 0 l 393 100 l 393 201 l 393 301 l 393 403 l 393 503 l 393 604 l 393 705 l 393 806 l 393 906 l 306 906 l 219 906 l 133 906 l 46 906 l 46 926 l 148 926 l 251 926 l 354 926 l 456 926 l 558 926 l 661 926 l 763 926 l 763 906 "},"N":{"x_min":133.109375,"x_max":850.765625,"ha":984,"o":"m 850 0 l 821 0 l 765 74 l 710 149 l 654 223 l 599 298 l 544 373 l 489 447 l 433 521 l 378 597 l 322 671 l 267 745 l 211 820 l 156 895 l 156 795 l 156 696 l 156 597 l 156 497 l 156 397 l 156 298 l 156 198 l 156 99 l 156 0 l 133 0 l 133 92 l 133 185 l 133 277 l 133 370 l 133 463 l 133 555 l 133 648 l 133 740 l 133 833 l 133 926 l 162 926 l 217 851 l 272 776 l 327 702 l 383 627 l 438 553 l 494 478 l 549 404 l 605 329 l 660 255 l 716 180 l 771 106 l 827 31 l 827 131 l 827 230 l 827 329 l 827 429 l 827 528 l 827 627 l 827 727 l 827 826 l 827 926 l 850 926 l 850 833 l 850 740 l 850 648 l 850 555 l 850 463 l 850 370 l 850 277 l 850 185 l 850 92 l 850 0 "},"K":{"x_min":133.109375,"x_max":677.140625,"ha":695,"o":"m 156 0 l 133 0 l 133 92 l 133 185 l 133 277 l 133 370 l 133 463 l 133 555 l 133 648 l 133 740 l 133 833 l 133 926 l 156 926 l 156 833 l 156 740 l 156 648 l 156 555 l 156 463 l 156 370 l 156 277 l 156 185 l 156 92 l 156 0 m 199 491 l 268 421 l 335 351 l 404 280 l 472 211 l 541 140 l 608 70 l 677 0 l 645 0 l 576 70 l 509 140 l 440 211 l 372 280 l 303 351 l 236 421 l 167 491 l 237 564 l 307 636 l 377 708 l 447 781 l 517 853 l 587 926 l 619 926 l 548 853 l 479 781 l 408 708 l 339 636 l 269 564 l 199 491 "},"d":{"x_min":46.296875,"x_max":590.328125,"ha":695,"o":"m 590 926 l 590 833 l 590 740 l 590 648 l 590 555 l 590 463 l 590 370 l 590 277 l 590 185 l 590 92 l 590 0 l 567 0 l 567 84 l 505 33 l 431 0 l 347 -11 l 251 3 l 168 46 l 104 110 l 61 193 l 46 289 l 61 384 l 104 467 l 168 532 l 251 574 l 347 590 l 431 578 l 505 544 l 567 493 l 567 601 l 567 709 l 567 817 l 567 926 l 590 926 m 347 7 l 432 21 l 507 58 l 567 116 l 567 202 l 567 289 l 567 375 l 567 462 l 507 519 l 432 557 l 347 571 l 259 556 l 183 516 l 123 455 l 83 378 l 69 289 l 83 200 l 123 123 l 183 62 l 259 22 l 347 7 "},"Y":{"x_min":46.296875,"x_max":763.953125,"ha":810,"o":"m 416 459 l 416 367 l 416 275 l 416 183 l 416 91 l 416 0 l 393 0 l 393 91 l 393 183 l 393 275 l 393 367 l 393 459 l 335 537 l 277 614 l 219 692 l 162 770 l 104 847 l 46 926 l 75 926 l 130 851 l 185 778 l 240 704 l 295 629 l 350 556 l 405 482 l 460 556 l 515 629 l 570 704 l 625 778 l 680 851 l 735 926 l 763 926 l 706 847 l 648 770 l 590 692 l 532 614 l 474 537 l 416 459 "},"E":{"x_min":133.109375,"x_max":619.265625,"ha":666,"o":"m 619 906 l 526 906 l 434 906 l 341 906 l 248 906 l 156 906 l 156 800 l 156 694 l 156 588 l 156 482 l 257 482 l 358 482 l 460 482 l 561 482 l 561 463 l 460 463 l 358 463 l 257 463 l 156 463 l 156 374 l 156 285 l 156 196 l 156 108 l 156 19 l 248 19 l 341 19 l 434 19 l 526 19 l 619 19 l 619 0 l 521 0 l 424 0 l 327 0 l 230 0 l 133 0 l 133 92 l 133 185 l 133 277 l 133 370 l 133 463 l 133 555 l 133 648 l 133 740 l 133 833 l 133 926 l 230 926 l 327 926 l 424 926 l 521 926 l 619 926 l 619 906 "},"j":{"x_min":-86.8125,"x_max":167.84375,"ha":289,"o":"m 156 578 l 156 479 l 156 380 l 156 280 l 156 182 l 156 82 l 156 -16 l 156 -115 l 136 -210 l 84 -288 l 7 -339 l -86 -358 l -86 -339 l 0 -322 l 68 -273 l 115 -202 l 133 -115 l 133 -16 l 133 82 l 133 182 l 133 280 l 133 380 l 133 479 l 133 578 l 156 578 m 144 833 l 167 810 l 144 787 l 121 810 l 144 833 "},"y":{"x_min":46.296875,"x_max":532.453125,"ha":579,"o":"m 300 0 l 266 -86 l 230 -173 l 195 -260 l 161 -347 l 137 -347 l 172 -260 l 207 -173 l 243 -86 l 277 0 l 239 96 l 200 192 l 162 289 l 123 385 l 84 482 l 46 578 l 69 578 l 106 487 l 142 395 l 179 303 l 216 212 l 252 120 l 289 28 l 326 120 l 362 212 l 399 303 l 435 395 l 472 487 l 509 578 l 532 578 l 493 482 l 455 385 l 416 289 l 378 192 l 339 96 l 300 0 "},"Z":{"x_min":46.296875,"x_max":763.953125,"ha":810,"o":"m 763 906 l 707 832 l 649 759 l 592 684 l 534 610 l 477 537 l 419 463 l 362 388 l 305 315 l 247 241 l 190 166 l 133 93 l 76 19 l 174 19 l 272 19 l 371 19 l 468 19 l 567 19 l 665 19 l 763 19 l 763 0 l 661 0 l 558 0 l 456 0 l 354 0 l 251 0 l 148 0 l 46 0 l 46 19 l 103 93 l 161 166 l 218 241 l 275 315 l 332 388 l 390 463 l 447 537 l 505 610 l 562 684 l 620 759 l 677 832 l 735 906 l 636 906 l 538 906 l 439 906 l 341 906 l 243 906 l 144 906 l 46 906 l 46 926 l 148 926 l 251 926 l 354 926 l 456 926 l 558 926 l 661 926 l 763 926 l 763 906 "},"u":{"x_min":133.109375,"x_max":619.265625,"ha":752,"o":"m 619 578 l 619 482 l 619 385 l 619 289 l 619 192 l 619 96 l 619 0 l 596 0 l 596 82 l 534 31 l 459 0 l 376 -11 l 281 7 l 203 58 l 152 136 l 133 231 l 133 318 l 133 405 l 133 491 l 133 578 l 156 578 l 156 491 l 156 405 l 156 318 l 156 231 l 173 144 l 220 73 l 290 25 l 376 7 l 462 21 l 536 59 l 596 117 l 596 210 l 596 301 l 596 394 l 596 486 l 596 578 l 619 578 "},"k":{"x_min":75.234375,"x_max":561.390625,"ha":579,"o":"m 285 314 l 222 251 l 161 190 l 98 127 l 98 0 l 75 0 l 75 92 l 75 185 l 75 277 l 75 370 l 75 463 l 75 555 l 75 648 l 75 740 l 75 833 l 75 926 l 98 926 l 98 829 l 98 733 l 98 636 l 98 540 l 98 444 l 98 348 l 98 251 l 98 155 l 168 225 l 239 296 l 309 366 l 380 437 l 450 508 l 520 578 l 549 578 l 487 516 l 424 453 l 362 391 l 299 328 l 365 246 l 430 163 l 495 81 l 561 0 l 534 0 l 471 78 l 409 157 l 347 235 l 285 314 "},"g":{"x_min":46.296875,"x_max":590.328125,"ha":695,"o":"m 590 578 l 590 479 l 590 380 l 590 280 l 590 182 l 590 82 l 590 -16 l 590 -115 l 571 -210 l 518 -288 l 441 -339 l 347 -358 l 257 -345 l 179 -308 l 115 -250 l 115 -213 l 176 -279 l 255 -324 l 347 -339 l 433 -322 l 502 -273 l 549 -202 l 567 -115 l 567 -15 l 567 84 l 505 33 l 431 0 l 347 -11 l 251 3 l 168 46 l 104 110 l 61 193 l 46 289 l 61 384 l 104 467 l 168 532 l 251 574 l 347 590 l 431 578 l 505 544 l 567 493 l 567 578 l 590 578 m 347 7 l 432 21 l 507 58 l 567 116 l 567 202 l 567 289 l 567 375 l 567 462 l 507 519 l 432 557 l 347 571 l 259 556 l 183 516 l 123 455 l 83 378 l 69 289 l 83 200 l 123 123 l 183 62 l 259 22 l 347 7 "},"t":{"x_min":69.453125,"x_max":358.828125,"ha":405,"o":"m 138 463 l 138 347 l 138 231 l 156 144 l 203 73 l 272 25 l 358 7 l 358 -11 l 264 7 l 186 58 l 135 136 l 115 231 l 115 347 l 115 463 l 69 463 l 69 482 l 115 482 l 115 588 l 115 694 l 138 694 l 138 588 l 138 482 l 248 482 l 358 482 l 358 463 l 248 463 l 138 463 "},"e":{"x_min":46.296875,"x_max":648.203125,"ha":695,"o":"m 347 590 l 442 574 l 525 532 l 590 467 l 632 384 l 648 289 l 551 289 l 455 289 l 358 289 l 262 289 l 165 289 l 69 289 l 83 200 l 123 123 l 183 62 l 259 22 l 347 7 l 438 23 l 517 67 l 578 134 l 578 96 l 515 38 l 436 1 l 347 -11 l 251 3 l 168 46 l 104 110 l 61 193 l 46 289 l 61 384 l 104 467 l 168 532 l 251 574 l 347 590 m 70 308 l 163 308 l 255 308 l 347 308 l 439 308 l 532 308 l 625 308 l 598 410 l 537 494 l 451 550 l 347 571 l 243 550 l 157 494 l 97 410 l 70 308 "},"J":{"x_min":5.78125,"x_max":445.640625,"ha":579,"o":"m 445 926 l 445 828 l 445 732 l 445 634 l 445 537 l 445 439 l 445 343 l 445 245 l 425 136 l 370 55 l 288 5 l 188 -11 l 87 8 l 5 63 l 5 97 l 85 32 l 188 8 l 278 25 l 354 71 l 404 146 l 422 245 l 422 343 l 422 439 l 422 537 l 422 634 l 422 732 l 422 828 l 422 926 l 445 926 "},"W":{"x_min":104.171875,"x_max":1284.828125,"ha":1389,"o":"m 995 0 l 972 0 l 944 88 l 916 177 l 889 267 l 861 355 l 833 444 l 805 533 l 777 622 l 750 711 l 722 800 l 694 889 l 666 800 l 638 711 l 611 622 l 583 533 l 555 444 l 527 355 l 499 267 l 472 177 l 444 88 l 416 0 l 393 0 l 364 92 l 335 185 l 306 277 l 277 370 l 248 463 l 219 555 l 190 648 l 162 740 l 133 833 l 104 926 l 127 926 l 155 837 l 183 748 l 210 658 l 238 570 l 266 481 l 294 392 l 322 303 l 349 214 l 377 125 l 405 36 l 433 125 l 461 214 l 488 303 l 516 392 l 544 481 l 572 570 l 599 658 l 626 748 l 654 837 l 682 926 l 706 926 l 734 837 l 762 748 l 789 658 l 817 570 l 844 481 l 872 392 l 900 303 l 927 214 l 955 125 l 983 36 l 1011 125 l 1039 214 l 1066 303 l 1094 392 l 1122 481 l 1150 570 l 1178 658 l 1205 748 l 1233 837 l 1261 926 l 1284 926 l 1255 833 l 1226 740 l 1198 648 l 1169 555 l 1140 463 l 1111 370 l 1082 277 l 1053 185 l 1024 92 l 995 0 "},"v":{"x_min":46.296875,"x_max":532.453125,"ha":579,"o":"m 300 0 l 277 0 l 239 96 l 200 192 l 162 289 l 123 385 l 84 482 l 46 578 l 69 578 l 106 487 l 142 395 l 179 303 l 216 213 l 252 121 l 289 29 l 326 121 l 362 213 l 399 303 l 435 395 l 472 487 l 509 578 l 532 578 l 493 482 l 455 385 l 416 289 l 378 192 l 339 96 l 300 0 "},"s":{"x_min":63.65625,"x_max":520.875,"ha":579,"o":"m 286 590 l 390 576 l 484 538 l 484 513 l 391 555 l 286 571 l 194 557 l 129 516 l 104 446 l 133 372 l 204 333 l 292 313 l 399 289 l 485 242 l 520 150 l 488 61 l 404 6 l 287 -12 l 168 2 l 63 50 l 63 75 l 168 24 l 288 6 l 392 23 l 467 70 l 496 148 l 463 229 l 383 271 l 285 292 l 189 315 l 111 362 l 81 446 l 109 524 l 184 573 l 286 590 "},"B":{"x_min":133.109375,"x_max":648.203125,"ha":695,"o":"m 133 926 l 250 926 l 368 926 l 455 908 l 525 861 l 572 790 l 590 704 l 572 615 l 521 544 l 447 496 l 527 465 l 591 410 l 632 337 l 648 250 l 628 153 l 574 73 l 494 19 l 397 0 l 309 0 l 220 0 l 133 0 l 133 92 l 133 185 l 133 277 l 133 370 l 133 463 l 133 555 l 133 648 l 133 740 l 133 833 l 133 926 m 156 906 l 156 805 l 156 704 l 156 602 l 156 501 l 260 501 l 365 501 l 466 529 l 539 601 l 567 703 l 539 805 l 466 878 l 365 906 l 260 906 l 156 906 m 156 482 l 156 389 l 156 297 l 156 204 l 156 111 l 156 19 l 274 19 l 394 19 l 484 37 l 557 87 l 606 162 l 625 251 l 606 341 l 557 414 l 484 463 l 394 482 l 274 482 l 156 482 "},"H":{"x_min":133.109375,"x_max":850.765625,"ha":984,"o":"m 850 0 l 827 0 l 827 92 l 827 185 l 827 277 l 827 370 l 827 463 l 732 463 l 635 463 l 540 463 l 443 463 l 348 463 l 251 463 l 156 463 l 156 370 l 156 277 l 156 185 l 156 92 l 156 0 l 133 0 l 133 92 l 133 185 l 133 277 l 133 370 l 133 463 l 133 555 l 133 648 l 133 740 l 133 833 l 133 926 l 156 926 l 156 837 l 156 748 l 156 659 l 156 571 l 156 482 l 251 482 l 348 482 l 443 482 l 540 482 l 635 482 l 732 482 l 827 482 l 827 571 l 827 659 l 827 748 l 827 837 l 827 926 l 850 926 l 850 833 l 850 740 l 850 648 l 850 555 l 850 463 l 850 370 l 850 277 l 850 185 l 850 92 l 850 0 "},"c":{"x_min":57.875,"x_max":590.328125,"ha":637,"o":"m 358 590 l 448 576 l 526 539 l 590 482 l 590 444 l 529 511 l 450 555 l 358 571 l 271 556 l 194 516 l 135 455 l 95 378 l 81 289 l 95 200 l 135 123 l 194 62 l 271 22 l 358 7 l 450 23 l 529 67 l 590 134 l 590 96 l 526 38 l 448 1 l 358 -11 l 263 3 l 180 46 l 115 110 l 73 193 l 57 289 l 73 384 l 115 467 l 180 532 l 263 574 l 358 590 "},"q":{"x_min":46.296875,"x_max":590.328125,"ha":695,"o":"m 590 578 l 590 486 l 590 393 l 590 300 l 590 208 l 590 115 l 590 23 l 590 -69 l 590 -162 l 590 -254 l 590 -347 l 567 -347 l 567 -239 l 567 -131 l 567 -23 l 567 84 l 505 33 l 431 0 l 347 -11 l 251 3 l 168 46 l 104 110 l 61 193 l 46 289 l 61 384 l 104 467 l 168 532 l 251 574 l 347 590 l 431 578 l 505 544 l 567 493 l 567 578 l 590 578 m 347 7 l 432 21 l 507 58 l 567 116 l 567 202 l 567 289 l 567 375 l 567 462 l 507 519 l 432 557 l 347 571 l 259 556 l 183 516 l 123 455 l 83 378 l 69 289 l 83 200 l 123 123 l 183 62 l 259 22 l 347 7 "},"b":{"x_min":104.171875,"x_max":648.203125,"ha":695,"o":"m 347 590 l 442 574 l 525 532 l 590 467 l 632 384 l 648 289 l 632 193 l 590 110 l 525 46 l 442 3 l 347 -11 l 263 0 l 189 33 l 127 84 l 127 0 l 104 0 l 104 92 l 104 185 l 104 277 l 104 370 l 104 463 l 104 555 l 104 648 l 104 740 l 104 833 l 104 926 l 127 926 l 127 817 l 127 709 l 127 601 l 127 493 l 189 544 l 263 578 l 347 590 m 347 7 l 435 22 l 511 62 l 571 123 l 610 200 l 625 289 l 610 378 l 571 455 l 511 516 l 435 556 l 347 571 l 262 557 l 187 519 l 127 462 l 127 375 l 127 289 l 127 202 l 127 116 l 187 58 l 262 21 l 347 7 "},"D":{"x_min":133.109375,"x_max":937.578125,"ha":984,"o":"m 133 926 l 218 926 l 303 926 l 388 926 l 474 926 l 568 916 l 654 889 l 733 846 l 801 790 l 858 721 l 900 643 l 927 556 l 937 463 l 927 369 l 900 282 l 858 204 l 801 136 l 733 79 l 654 36 l 568 9 l 474 0 l 388 0 l 303 0 l 218 0 l 133 0 l 133 92 l 133 185 l 133 277 l 133 370 l 133 463 l 133 555 l 133 648 l 133 740 l 133 833 l 133 926 m 156 904 l 156 806 l 156 708 l 156 609 l 156 511 l 156 412 l 156 314 l 156 216 l 156 117 l 156 19 l 262 19 l 368 19 l 474 19 l 575 30 l 668 64 l 749 117 l 817 186 l 870 269 l 902 361 l 914 463 l 902 564 l 870 656 l 817 738 l 749 807 l 668 859 l 575 893 l 474 904 l 368 904 l 262 904 l 156 904 "},"I":{"x_min":133.109375,"x_max":156.265625,"ha":289,"o":"m 156 0 l 133 0 l 133 92 l 133 185 l 133 277 l 133 370 l 133 463 l 133 555 l 133 648 l 133 740 l 133 833 l 133 926 l 156 926 l 156 833 l 156 740 l 156 648 l 156 555 l 156 463 l 156 370 l 156 277 l 156 185 l 156 92 l 156 0 "},"G":{"x_min":46.296875,"x_max":878.734375,"ha":984,"o":"m 520 937 l 625 926 l 721 893 l 806 842 l 878 774 l 878 738 l 808 812 l 723 869 l 626 905 l 520 918 l 417 905 l 322 871 l 238 817 l 168 747 l 114 662 l 81 567 l 69 463 l 81 358 l 114 263 l 168 178 l 238 108 l 322 54 l 417 20 l 520 7 l 619 19 l 709 50 l 790 99 l 858 163 l 858 256 l 857 349 l 857 441 l 745 441 l 632 441 l 520 441 l 520 463 l 610 463 l 699 463 l 789 463 l 878 463 l 878 359 l 878 255 l 878 152 l 806 84 l 721 32 l 625 0 l 520 -11 l 425 -1 l 335 26 l 255 69 l 185 127 l 127 197 l 83 277 l 55 367 l 46 463 l 55 558 l 83 648 l 127 728 l 185 798 l 255 856 l 335 899 l 425 927 l 520 937 "},"z":{"x_min":46.296875,"x_max":532.453125,"ha":579,"o":"m 532 559 l 466 482 l 402 405 l 336 327 l 271 250 l 205 173 l 140 96 l 75 19 l 166 19 l 258 19 l 349 19 l 440 19 l 532 19 l 532 0 l 435 0 l 337 0 l 241 0 l 143 0 l 46 0 l 46 19 l 111 96 l 177 173 l 243 250 l 307 327 l 373 405 l 438 482 l 504 559 l 412 559 l 321 559 l 229 559 l 137 559 l 46 559 l 46 578 l 143 578 l 241 578 l 337 578 l 435 578 l 532 578 l 532 559 "},"U":{"x_min":104.171875,"x_max":821.828125,"ha":926,"o":"m 821 926 l 821 829 l 821 733 l 821 636 l 821 540 l 821 443 l 821 347 l 809 251 l 772 165 l 716 93 l 644 37 l 558 0 l 463 -11 l 367 0 l 281 36 l 208 92 l 152 165 l 116 251 l 104 347 l 104 443 l 104 540 l 104 636 l 104 733 l 104 829 l 104 926 l 127 926 l 127 829 l 127 733 l 127 636 l 127 540 l 127 443 l 127 347 l 144 240 l 191 147 l 264 74 l 355 27 l 463 9 l 569 27 l 660 75 l 734 147 l 781 240 l 798 347 l 798 443 l 798 540 l 798 636 l 798 733 l 798 829 l 798 926 l 821 926 "},"w":{"x_min":46.296875,"x_max":879.703125,"ha":926,"o":"m 677 0 l 653 0 l 622 90 l 590 182 l 558 272 l 526 363 l 494 455 l 463 545 l 431 455 l 399 363 l 367 272 l 335 182 l 303 90 l 272 0 l 248 0 l 215 96 l 181 192 l 147 289 l 113 385 l 80 482 l 46 578 l 69 578 l 101 488 l 133 396 l 164 305 l 196 215 l 228 123 l 260 32 l 292 123 l 324 215 l 355 305 l 387 396 l 419 488 l 451 578 l 474 578 l 506 488 l 538 396 l 570 305 l 601 215 l 633 123 l 665 32 l 697 123 l 729 215 l 761 305 l 792 396 l 824 488 l 856 578 l 879 578 l 845 482 l 812 385 l 778 289 l 744 192 l 710 96 l 677 0 "},"F":{"x_min":133.109375,"x_max":619.265625,"ha":637,"o":"m 619 906 l 526 906 l 434 906 l 341 906 l 248 906 l 156 906 l 156 800 l 156 694 l 156 588 l 156 482 l 257 482 l 358 482 l 460 482 l 561 482 l 561 463 l 460 463 l 358 463 l 257 463 l 156 463 l 156 370 l 156 277 l 156 185 l 156 92 l 156 0 l 133 0 l 133 92 l 133 185 l 133 277 l 133 370 l 133 463 l 133 555 l 133 648 l 133 740 l 133 833 l 133 926 l 230 926 l 327 926 l 424 926 l 521 926 l 619 926 l 619 906 "},"r":{"x_min":115.75,"x_max":590.328125,"ha":579,"o":"m 358 590 l 448 576 l 526 540 l 590 482 l 590 444 l 529 511 l 450 555 l 358 571 l 272 557 l 198 518 l 138 461 l 138 368 l 138 276 l 138 184 l 138 92 l 138 0 l 115 0 l 115 96 l 115 192 l 115 289 l 115 385 l 115 482 l 115 578 l 138 578 l 138 495 l 200 546 l 275 578 l 358 590 "},"x":{"x_min":46.296875,"x_max":532.453125,"ha":579,"o":"m 289 279 l 235 209 l 181 139 l 127 69 l 73 0 l 46 0 l 103 74 l 161 148 l 218 222 l 275 297 l 220 367 l 166 437 l 111 508 l 57 578 l 84 578 l 153 490 l 220 402 l 289 314 l 357 402 l 425 490 l 493 578 l 520 578 l 465 508 l 411 437 l 356 367 l 302 297 l 359 222 l 417 148 l 474 74 l 532 0 l 505 0 l 451 69 l 397 139 l 343 209 l 289 279 "},"V":{"x_min":92.59375,"x_max":833.40625,"ha":926,"o":"m 474 0 l 451 0 l 415 92 l 380 185 l 343 277 l 307 370 l 272 463 l 236 555 l 200 648 l 163 740 l 128 833 l 92 926 l 115 926 l 150 836 l 185 746 l 219 656 l 254 567 l 289 477 l 324 388 l 358 299 l 393 209 l 428 119 l 463 29 l 497 119 l 532 209 l 567 299 l 601 388 l 636 477 l 671 567 l 706 656 l 740 746 l 775 836 l 810 926 l 833 926 l 797 833 l 762 740 l 725 648 l 689 555 l 653 463 l 618 370 l 582 277 l 545 185 l 510 92 l 474 0 "},"Q":{"x_min":46.296875,"x_max":995.453125,"ha":1042,"o":"m 995 463 l 984 362 l 954 270 l 907 187 l 844 115 l 920 57 l 995 0 l 961 0 l 895 51 l 828 102 l 738 41 l 634 1 l 520 -11 l 425 -1 l 335 26 l 255 69 l 185 127 l 127 197 l 83 277 l 55 367 l 46 463 l 55 558 l 83 648 l 127 728 l 185 798 l 255 856 l 335 899 l 425 927 l 520 937 l 616 927 l 706 899 l 786 856 l 856 798 l 914 728 l 957 648 l 985 558 l 995 463 m 520 7 l 627 20 l 726 57 l 812 114 l 735 172 l 660 230 l 584 289 l 509 347 l 543 347 l 614 292 l 684 238 l 756 183 l 827 129 l 887 197 l 932 277 l 961 367 l 972 463 l 960 567 l 926 662 l 872 747 l 803 817 l 719 871 l 624 905 l 520 918 l 417 905 l 322 871 l 238 817 l 168 747 l 114 662 l 81 567 l 69 463 l 81 358 l 114 263 l 168 178 l 238 108 l 322 54 l 417 20 l 520 7 "},"h":{"x_min":115.75,"x_max":601.90625,"ha":695,"o":"m 358 590 l 453 571 l 530 518 l 582 441 l 601 347 l 601 260 l 601 173 l 601 86 l 601 0 l 578 0 l 578 86 l 578 173 l 578 260 l 578 347 l 561 434 l 514 505 l 444 553 l 358 571 l 272 557 l 198 518 l 138 461 l 138 368 l 138 276 l 138 184 l 138 92 l 138 0 l 115 0 l 115 92 l 115 185 l 115 277 l 115 370 l 115 463 l 115 555 l 115 648 l 115 740 l 115 833 l 115 926 l 138 926 l 138 817 l 138 710 l 138 602 l 138 495 l 200 546 l 275 578 l 358 590 "},"M":{"x_min":133.109375,"x_max":966.515625,"ha":1100,"o":"m 966 0 l 943 0 l 943 99 l 943 198 l 943 298 l 943 397 l 943 496 l 943 596 l 943 695 l 943 794 l 943 894 l 888 816 l 834 737 l 779 659 l 725 581 l 670 503 l 616 425 l 561 347 l 538 347 l 483 425 l 429 502 l 374 580 l 320 658 l 265 736 l 211 814 l 156 892 l 156 792 l 156 693 l 156 595 l 156 495 l 156 396 l 156 297 l 156 198 l 156 99 l 156 0 l 133 0 l 133 92 l 133 185 l 133 277 l 133 370 l 133 463 l 133 555 l 133 648 l 133 740 l 133 833 l 133 926 l 162 926 l 217 846 l 272 766 l 327 687 l 383 607 l 438 528 l 494 448 l 549 369 l 604 448 l 660 528 l 715 607 l 771 687 l 826 766 l 882 846 l 937 926 l 966 926 l 966 833 l 966 740 l 966 648 l 966 555 l 966 463 l 966 370 l 966 277 l 966 185 l 966 92 l 966 0 "},"C":{"x_min":46.296875,"x_max":879.703125,"ha":926,"o":"m 520 937 l 625 926 l 721 893 l 807 841 l 879 773 l 879 736 l 809 811 l 724 868 l 626 904 l 520 918 l 417 905 l 322 871 l 238 817 l 168 747 l 114 662 l 81 567 l 69 463 l 81 358 l 114 263 l 168 178 l 238 108 l 322 54 l 417 20 l 520 7 l 626 21 l 724 57 l 809 114 l 879 188 l 879 152 l 807 84 l 721 32 l 625 0 l 520 -11 l 425 -1 l 335 26 l 255 69 l 185 127 l 127 197 l 83 277 l 55 367 l 46 463 l 55 558 l 83 648 l 127 728 l 185 798 l 255 856 l 335 899 l 425 927 l 520 937 "},"f":{"x_min":69.453125,"x_max":358.828125,"ha":405,"o":"m 358 937 l 358 918 l 272 900 l 203 852 l 156 781 l 138 694 l 138 588 l 138 482 l 248 482 l 358 482 l 358 463 l 248 463 l 138 463 l 138 370 l 138 277 l 138 185 l 138 92 l 138 0 l 115 0 l 115 92 l 115 185 l 115 277 l 115 370 l 115 463 l 69 463 l 69 482 l 115 482 l 115 588 l 115 694 l 135 789 l 186 866 l 264 918 l 358 937 "},"L":{"x_min":162.046875,"x_max":648.203125,"ha":695,"o":"m 185 19 l 277 19 l 370 19 l 463 19 l 555 19 l 648 19 l 648 0 l 550 0 l 453 0 l 356 0 l 259 0 l 162 0 l 162 92 l 162 185 l 162 277 l 162 370 l 162 463 l 162 555 l 162 648 l 162 740 l 162 833 l 162 926 l 185 926 l 185 825 l 185 724 l 185 624 l 185 522 l 185 422 l 185 321 l 185 220 l 185 119 l 185 19 "},"i":{"x_min":121.53125,"x_max":167.84375,"ha":289,"o":"m 156 0 l 133 0 l 133 96 l 133 192 l 133 289 l 133 385 l 133 482 l 133 578 l 156 578 l 156 482 l 156 385 l 156 289 l 156 192 l 156 96 l 156 0 m 144 833 l 167 810 l 144 787 l 121 810 l 144 833 "},"A":{"x_min":92.59375,"x_max":833.40625,"ha":926,"o":"m 250 348 l 217 261 l 183 173 l 149 86 l 115 0 l 92 0 l 128 92 l 163 185 l 200 277 l 236 370 l 272 463 l 307 555 l 343 648 l 380 740 l 415 833 l 451 926 l 474 926 l 510 833 l 545 740 l 582 648 l 618 555 l 653 463 l 689 370 l 725 277 l 762 185 l 797 92 l 833 0 l 810 0 l 776 86 l 742 173 l 708 261 l 675 348 l 569 348 l 463 348 l 356 348 l 250 348 m 463 896 l 429 808 l 394 719 l 360 631 l 327 544 l 292 455 l 258 367 l 360 367 l 463 367 l 565 367 l 667 367 l 633 455 l 599 544 l 565 631 l 531 719 l 496 808 l 463 896 "},"n":{"x_min":115.75,"x_max":601.90625,"ha":695,"o":"m 358 590 l 453 571 l 530 518 l 582 441 l 601 347 l 601 260 l 601 173 l 601 86 l 601 0 l 578 0 l 578 86 l 578 173 l 578 260 l 578 347 l 561 434 l 514 505 l 444 553 l 358 571 l 272 557 l 198 518 l 138 461 l 138 368 l 138 276 l 138 184 l 138 92 l 138 0 l 115 0 l 115 96 l 115 192 l 115 289 l 115 385 l 115 482 l 115 578 l 138 578 l 138 495 l 200 546 l 275 578 l 358 590 "},"O":{"x_min":46.296875,"x_max":995.453125,"ha":1042,"o":"m 520 937 l 616 927 l 706 899 l 786 856 l 856 798 l 914 728 l 957 648 l 985 558 l 995 463 l 985 367 l 957 277 l 914 197 l 856 127 l 786 69 l 706 26 l 616 -1 l 520 -11 l 425 -1 l 335 26 l 255 69 l 185 127 l 127 197 l 83 277 l 55 367 l 46 463 l 55 558 l 83 648 l 127 728 l 185 798 l 255 856 l 335 899 l 425 927 l 520 937 m 520 918 l 417 905 l 322 871 l 238 817 l 168 747 l 114 662 l 81 567 l 69 463 l 81 358 l 114 263 l 168 178 l 238 108 l 322 54 l 417 20 l 520 7 l 624 20 l 719 54 l 803 108 l 872 178 l 926 263 l 960 358 l 972 463 l 960 567 l 926 662 l 872 747 l 803 817 l 719 871 l 624 905 l 520 918 "}," ":{"x_min":0,"x_max":0,"ha":579},"X":{"x_min":46.296875,"x_max":763.953125,"ha":810,"o":"m 419 483 l 476 402 l 534 322 l 591 241 l 649 161 l 706 80 l 763 0 l 735 0 l 680 77 l 625 154 l 570 231 l 515 308 l 460 385 l 405 463 l 350 385 l 295 308 l 240 231 l 185 154 l 130 77 l 75 0 l 46 0 l 103 80 l 161 161 l 218 241 l 275 322 l 332 402 l 390 483 l 337 556 l 285 630 l 232 704 l 180 778 l 127 851 l 75 926 l 104 926 l 163 841 l 224 757 l 284 672 l 345 588 l 405 503 l 464 588 l 525 672 l 585 757 l 646 841 l 706 926 l 735 926 l 681 851 l 629 778 l 576 704 l 524 630 l 471 556 l 419 483 "},"P":{"x_min":133.109375,"x_max":619.265625,"ha":695,"o":"m 133 926 l 216 926 l 299 926 l 382 926 l 474 907 l 549 856 l 600 781 l 619 689 l 600 597 l 549 521 l 474 470 l 382 452 l 269 452 l 156 452 l 156 361 l 156 271 l 156 181 l 156 90 l 156 0 l 133 0 l 133 92 l 133 185 l 133 277 l 133 370 l 133 463 l 133 555 l 133 648 l 133 740 l 133 833 l 133 926 m 156 906 l 156 819 l 156 733 l 156 645 l 156 558 l 156 471 l 269 471 l 382 471 l 466 489 l 535 535 l 580 604 l 598 689 l 580 773 l 535 843 l 466 889 l 382 906 l 269 906 l 156 906 "},"m":{"x_min":115.75,"x_max":1064.90625,"ha":1158,"o":"m 821 590 l 916 571 l 993 518 l 1045 441 l 1064 347 l 1064 260 l 1064 173 l 1064 86 l 1064 0 l 1041 0 l 1041 86 l 1041 173 l 1041 260 l 1041 347 l 1024 434 l 977 505 l 907 553 l 821 571 l 727 553 l 646 506 l 585 435 l 601 347 l 601 260 l 601 173 l 601 86 l 601 0 l 578 0 l 578 86 l 578 173 l 578 260 l 578 347 l 561 434 l 514 505 l 444 553 l 358 571 l 272 557 l 198 518 l 138 461 l 138 368 l 138 276 l 138 184 l 138 92 l 138 0 l 115 0 l 115 96 l 115 192 l 115 289 l 115 385 l 115 482 l 115 578 l 138 578 l 138 495 l 200 546 l 275 578 l 358 590 l 447 573 l 520 528 l 573 461 l 639 529 l 724 573 l 821 590 "},"l":{"x_min":115.75,"x_max":358.828125,"ha":405,"o":"m 138 926 l 138 826 l 138 727 l 138 627 l 138 529 l 138 430 l 138 330 l 138 231 l 156 144 l 203 73 l 272 25 l 358 7 l 358 -11 l 264 7 l 186 58 l 135 136 l 115 231 l 115 330 l 115 430 l 115 529 l 115 627 l 115 727 l 115 826 l 115 926 l 138 926 "},"p":{"x_min":104.171875,"x_max":648.203125,"ha":695,"o":"m 347 590 l 442 574 l 525 532 l 590 467 l 632 384 l 648 289 l 632 193 l 590 110 l 525 46 l 442 3 l 347 -11 l 263 0 l 189 33 l 127 84 l 127 -23 l 127 -131 l 127 -239 l 127 -347 l 104 -347 l 104 -254 l 104 -162 l 104 -69 l 104 23 l 104 115 l 104 208 l 104 300 l 104 393 l 104 486 l 104 578 l 127 578 l 127 493 l 189 544 l 263 578 l 347 590 m 347 7 l 435 22 l 511 62 l 571 123 l 610 200 l 625 289 l 610 378 l 571 455 l 511 516 l 435 556 l 347 571 l 262 557 l 187 519 l 127 462 l 127 375 l 127 289 l 127 202 l 127 116 l 187 58 l 262 21 l 347 7 "},"R":{"x_min":150.46875,"x_max":695.46875,"ha":753,"o":"m 150 926 l 233 926 l 317 926 l 400 926 l 491 907 l 567 856 l 618 781 l 636 689 l 619 599 l 572 526 l 501 474 l 414 452 l 461 377 l 508 301 l 554 225 l 601 150 l 648 75 l 695 0 l 669 0 l 622 75 l 575 150 l 528 225 l 482 301 l 435 377 l 388 452 l 280 452 l 173 452 l 173 361 l 173 271 l 173 181 l 173 90 l 173 0 l 150 0 l 150 92 l 150 185 l 150 277 l 150 370 l 150 463 l 150 555 l 150 648 l 150 740 l 150 833 l 150 926 m 173 906 l 173 819 l 173 733 l 173 645 l 173 558 l 173 471 l 286 471 l 400 471 l 484 489 l 552 535 l 598 604 l 615 689 l 598 773 l 552 843 l 484 889 l 400 906 l 286 906 l 173 906 "},"o":{"x_min":46.296875,"x_max":648.203125,"ha":695,"o":"m 347 590 l 442 574 l 525 532 l 590 467 l 632 384 l 648 289 l 632 193 l 590 110 l 525 46 l 442 3 l 347 -11 l 251 3 l 168 46 l 104 110 l 61 193 l 46 289 l 61 384 l 104 467 l 168 532 l 251 574 l 347 590 m 347 571 l 259 556 l 183 516 l 123 455 l 83 378 l 69 289 l 83 200 l 123 123 l 183 62 l 259 22 l 347 7 l 435 22 l 511 62 l 571 123 l 610 200 l 625 289 l 610 378 l 571 455 l 511 516 l 435 556 l 347 571 "}}}
